<svg width="25" height="24" viewBox="0 0 25 24" fill="none" xmlns="http://www.w3.org/2000/svg">
<path d="M11.1973 2H9.19727C4.19727 2 2.19727 4 2.19727 9V15C2.19727 20 4.19727 22 9.19727 22H15.1973C20.1973 22 22.1973 20 22.1973 15V13" stroke="#151F28" stroke-width="1.5" stroke-linecap="round" stroke-linejoin="round"/>
<path d="M16.2371 3.02001L8.35714 10.9C8.05714 11.2 7.75714 11.79 7.69714 12.22L7.26714 15.23C7.10714 16.32 7.87714 17.08 8.96714 16.93L11.9771 16.5C12.3971 16.44 12.9871 16.14 13.2971 15.84L21.1771 7.96001C22.5371 6.60001 23.1771 5.02001 21.1771 3.02001C19.1771 1.02001 17.5971 1.66001 16.2371 3.02001Z" stroke="#151F28" stroke-width="1.5" stroke-miterlimit="10" stroke-linecap="round" stroke-linejoin="round"/>
<path d="M15.1072 4.14999C15.7772 6.53999 17.6472 8.40999 20.0472 9.08999" stroke="#151F28" stroke-width="1.5" stroke-miterlimit="10" stroke-linecap="round" stroke-linejoin="round"/>
</svg>
