<svg width="201" height="82" viewBox="0 0 201 82" fill="none" xmlns="http://www.w3.org/2000/svg">
<rect width="201" height="82" fill="#C8CACE"/>
<rect width="201" height="81.9964" rx="40.9982" fill="#F7F7F7"/>
<g clip-path="url(#clip0_0_1)">
<path fill-rule="evenodd" clip-rule="evenodd" d="M99.0117 49.0472C98.4768 50.1359 97.302 51.2908 96.1729 51.8379C94.5545 52.622 93.6934 52.7571 90.3751 52.7474C86.327 52.7336 84.609 52.3767 84.0286 51.4272C83.52 50.6003 83.73 49.6357 84.5814 48.9315C85.1826 48.4271 85.7672 48.3637 87.2364 48.6407C88.7691 48.9301 91.7309 48.9659 92.9291 48.7096C94.3573 48.4046 94.9562 47.4973 94.7258 45.9878C94.5351 44.7186 93.605 44.1715 89.7504 43.058C85.2655 41.7667 83.5531 40.3321 83.2062 37.5787C82.7792 34.1899 84.5883 31.6294 88.0435 30.7488C88.6258 30.6081 89.2154 30.5 89.8098 30.425C92.1593 30.1493 95.0161 30.3368 96.3995 30.8522C97.3269 31.1967 97.6904 31.7025 97.6904 32.6437C97.6904 33.1701 97.6116 33.381 97.2758 33.7696C96.6317 34.5 96.1577 34.5965 94.2781 34.3966C93.3541 34.2989 92.4241 34.2708 91.4959 34.3126C88.8437 34.5055 87.8956 35.1022 87.8956 36.5782C87.8956 38.1106 88.4567 38.4951 92.3404 39.6307C95.4349 40.5347 96.81 41.1907 97.9129 42.2904C99.1457 43.5183 99.4152 44.2735 99.4194 46.4977C99.4166 48.128 99.3987 48.2672 99.0117 49.0472Z" fill="#44A8FF"/>
<path fill-rule="evenodd" clip-rule="evenodd" d="M178.119 39.216C176.838 36.6995 173.218 35.6067 168.35 36.2682C165.647 36.6348 164.868 37.0647 164.868 38.1865C164.868 38.633 164.955 38.8756 165.213 39.1512C165.776 39.7589 166.342 39.9312 167.256 39.7741C169.528 39.3827 172.369 39.4985 173.273 40.0042C174.039 40.4425 174.608 42.0356 174.158 42.4848C174.039 42.602 173.159 42.6488 171.07 42.6488C169.464 42.6488 167.843 42.7067 167.47 42.777C165.494 43.1504 164.153 44.0862 163.394 45.6324C162.995 46.4413 162.948 46.6618 162.949 47.7202C162.949 49.1562 163.144 49.8742 163.736 50.6473C164.841 52.0943 166.193 52.6965 168.526 52.7861C170.469 52.8605 171.779 52.618 173.15 51.9303C174.292 51.3584 174.521 51.3377 174.809 51.7787C175.472 52.7861 177.399 52.7971 178.325 51.798V51.798C178.546 51.5586 178.671 51.2452 178.673 50.9191L178.712 46.4537C178.76 41.1563 178.694 40.3446 178.119 39.216ZM174.082 48.0096C173.557 49.0473 171.941 49.724 169.976 49.7267C167.976 49.7267 167.083 49.1038 167.09 47.7009C167.09 46.7363 167.431 46.1326 168.156 45.806C168.652 45.5814 169.075 45.5442 171.196 45.5414C173.623 45.5414 173.658 45.5414 173.992 45.8763C174.403 46.2953 174.448 47.2875 174.082 48.0096Z" fill="#F39873"/>
<path fill-rule="evenodd" clip-rule="evenodd" d="M162.498 40.0283C161.82 40.2005 161.178 40.3824 160.615 40.563C160.131 40.7132 159.656 40.8879 159.191 41.0866C158.955 41.1912 158.754 41.3618 158.613 41.5778C158.473 41.7938 158.398 42.0459 158.398 42.3035V46.1691C158.398 51.3866 158.409 51.3108 157.513 52.0949C156.269 53.1836 154.286 52.529 153.84 50.8822C153.743 50.5239 153.701 48.137 153.733 43.8869C153.772 37.6097 153.78 37.425 154.058 37.0474C154.268 36.7905 154.526 36.577 154.818 36.419C155.849 35.8953 157.288 36.2909 157.907 37.2679C158.322 37.9129 158.514 37.9473 159.455 37.5435C160.74 36.9854 162.039 36.5968 162.621 36.5968C163.088 36.5968 163.292 36.6795 163.621 37.0102C164.668 38.0438 164.079 39.6272 162.498 40.0283Z" fill="#42C6B6"/>
<path fill-rule="evenodd" clip-rule="evenodd" d="M152.91 50.9243C152.91 51.7277 152.516 52.3382 151.851 52.578C151.022 52.8701 147.782 52.8288 146.875 52.5146C145.969 52.2004 144.859 51.2206 144.431 50.373C143.878 49.2816 143.8 48.5098 143.8 44.1716V40.3786C143.8 40.1932 143.65 40.0428 143.464 40.0428V40.0428C141.192 40.0428 140.783 36.9434 142.989 36.4501C143.318 36.3757 143.633 36.242 143.691 36.1524C143.749 36.0628 143.796 35.4303 143.798 34.7509C143.798 32.9897 144.201 32.4081 145.694 31.9947C146.758 31.7012 147.49 31.9437 148.137 32.8023C148.36 33.0999 148.433 33.4582 148.49 34.5414C148.582 36.2888 148.64 36.3522 150.228 36.4584C151.215 36.5231 151.452 36.5879 151.76 36.9214C152.068 37.2549 152.082 37.6711 152.082 38.1465C152.082 39.4626 151.543 40.0387 149.681 40.0387V40.0387C149.025 40.0387 148.494 40.5702 148.494 41.2259V43.9607C148.494 48.3265 148.546 48.6463 149.333 49.0487C149.584 49.1782 150.266 49.3105 150.896 49.3546C151.926 49.4235 152.05 49.4649 152.462 49.8755C152.831 50.2462 152.91 50.4323 152.91 50.9243Z" fill="#C482E9"/>
<path fill-rule="evenodd" clip-rule="evenodd" d="M141.163 40.7896C140.749 38.5502 139.241 37.0687 136.689 36.3962C135.87 36.1798 132.639 36.0172 131.65 36.1426C130.857 36.2419 128.995 36.5947 128.433 36.7518C127.06 37.1335 127.04 39.0518 128.401 39.6885C128.838 39.8938 129.038 39.909 129.764 39.7863C132.113 39.3894 134.754 39.49 135.773 40.0165C136.304 40.2921 136.687 40.926 136.803 41.7253C136.941 42.6307 136.852 42.6542 133.538 42.6569C129.352 42.6569 128.136 42.9794 126.766 44.4319C125.728 45.5344 125.5 46.16 125.507 47.8772C125.514 49.5943 125.746 50.202 126.781 51.2094C128.082 52.4773 129.464 52.8976 131.972 52.7901C133.812 52.7102 135.072 52.396 135.951 51.7992C136.613 51.3486 136.945 51.361 137.385 51.8516C137.886 52.4111 138.417 52.5958 139.313 52.5214C140.208 52.4469 140.714 52.13 141.066 51.4409C141.282 51.0275 141.307 50.4763 141.308 46.2868C141.314 43.4879 141.253 41.2774 141.163 40.7896ZM136.482 48.2575C136.163 48.7798 134.788 49.4716 133.652 49.6797C132.625 49.8685 131.232 49.739 130.549 49.3917C129.187 48.7026 129.265 46.5611 130.679 45.8514C131.245 45.5661 131.482 45.5413 133.67 45.5413C134.976 45.5413 136.146 45.5799 136.268 45.6267C136.923 45.8775 137.042 47.3397 136.482 48.2575Z" fill="#F39873"/>
<path fill-rule="evenodd" clip-rule="evenodd" d="M101.858 30.1493C100.702 30.8508 100.771 32.685 101.979 33.3313C102.569 33.6455 104.374 33.6772 105.077 33.3837C106.363 32.849 106.459 30.8811 105.242 30.1397C104.596 29.7483 102.509 29.7538 101.858 30.1493Z" fill="#C482E9"/>
<path fill-rule="evenodd" clip-rule="evenodd" d="M99.8132 36.9198C99.4193 37.2795 99.3046 37.5014 99.2465 38.0113C99.2059 38.3426 99.2115 38.6779 99.2631 39.0076C99.364 39.4059 100.08 39.9034 100.554 39.9048C100.775 39.9281 100.982 40.0252 101.141 40.1804C101.407 40.445 101.418 40.6379 101.418 45.5453C101.418 51.1749 101.418 51.1955 102.288 51.9604C103.445 52.9719 105.191 52.5557 105.853 51.1087C106.086 50.6016 106.106 50.0779 106.109 44.2651C106.109 37.3112 106.109 37.263 105.257 36.7475C104.843 36.4995 104.566 36.4719 102.555 36.4719H100.847C100.502 36.4719 100.169 36.6007 99.9141 36.833L99.8132 36.9198Z" fill="#C482E9"/>
<path fill-rule="evenodd" clip-rule="evenodd" d="M117.227 36.1329C117.075 36.1674 116.609 36.2707 116.191 36.3465C115.532 36.5159 114.891 36.7466 114.275 37.0356C113.637 37.3305 113.007 37.5717 112.875 37.5717C112.742 37.5717 112.528 37.398 112.389 37.1899C111.966 36.5436 111.784 36.4774 110.392 36.4733C108.944 36.4733 108.616 36.5932 108.34 37.2602C108.221 37.5455 108.188 39.4459 108.217 44.3216L108.253 50.337C108.255 50.7624 108.396 51.1755 108.655 51.5139C109.512 52.6315 111.014 52.8314 112.009 51.9604C112.87 51.2093 112.881 51.1335 112.881 45.9684V41.8179C112.881 41.4839 112.999 41.1607 113.215 40.9053V40.9053C113.953 40.0329 115.817 39.41 117.319 39.5354C118.522 39.636 119.072 39.9406 119.473 40.7275C119.775 41.3228 119.784 41.4482 119.789 45.8802C119.797 51.4216 119.855 51.6751 121.283 52.3104C122.418 52.8162 123.8 52.2512 124.29 51.0812C124.567 50.4238 124.553 41.451 124.274 40.1418C123.721 37.5234 121.995 36.2404 118.884 36.1219C118.122 36.093 117.376 36.0971 117.227 36.1329Z" fill="#42C6B6"/>
</g>
<circle cx="41.272" cy="40.9981" r="31.565" fill="white"/>
<path d="M34.6825 35.9002L43.7638 31.1175C46.0339 29.922 46.8781 27.1274 45.6495 24.8756V24.8756C44.4208 22.6238 41.5845 21.7675 39.3145 22.963L30.2332 27.7457C27.7983 29.0262 25.9993 31.249 25.2154 33.9458L33.858 36.8209C34.0175 36.4219 34.3081 36.0974 34.6825 35.9002Z" fill="#42C6B6"/>
<path d="M36.2698 39.2525C35.9291 39.4317 35.5361 39.4952 35.1453 39.4342C34.7545 39.3732 34.3854 39.1908 34.0892 38.9123C33.7931 38.6338 33.5847 38.273 33.4929 37.8801C33.4011 37.4872 33.4306 37.0817 33.5771 36.72L25.0567 33.8912C24.4532 35.9398 24.4771 38.1594 25.1254 40.2644C25.7736 42.3694 27.0166 44.2635 28.6943 45.703C30.372 47.1425 32.4077 48.0615 34.5394 48.3417C36.6712 48.6219 38.8014 48.2506 40.6561 47.2754L44.9296 45.0295L40.5433 37.0066L36.2698 39.2525Z" fill="#44A8FF"/>
<path d="M52.4878 55.3129C54.937 54.0235 56.7286 51.7657 57.4684 49.0363C58.2083 46.3069 57.8357 43.3293 56.4327 40.7588C55.0296 38.1882 52.7111 36.2351 49.9871 35.3292C47.2632 34.4233 44.3569 34.6388 41.9076 35.9282L40.7198 36.5536L45.0763 44.5355L46.2642 43.9102C46.6964 43.6826 47.2093 43.6446 47.69 43.8044C48.1707 43.9643 48.5798 44.309 48.8274 44.7626C49.075 45.2162 49.1407 45.7417 49.0102 46.2233C48.8796 46.705 48.5635 47.1034 48.1312 47.331L46.9434 47.9563L51.2999 55.9383L52.4878 55.3129Z" fill="#F39873"/>
<path d="M50.9431 56.1676L46.5176 48.0723L38.6868 52.1881C36.4312 53.3737 35.5934 56.1469 36.8154 58.3824C38.0375 60.6179 40.8567 61.469 43.1123 60.2835L50.9431 56.1676Z" fill="#C482E9"/>
<defs>
<clipPath id="clip0_0_1">
<rect width="95.7034" height="22.9591" fill="white" transform="translate(83.1436 29.8489)"/>
</clipPath>
</defs>
</svg>
