<svg width="196" height="160" viewBox="0 0 196 160" fill="none" xmlns="http://www.w3.org/2000/svg">
<g clip-path="url(#clip0_615_325)">
<path fill-rule="evenodd" clip-rule="evenodd" d="M129.454 75.597C129.011 76.4987 128.038 77.4553 127.103 77.9084C125.762 78.5579 125.049 78.6698 122.301 78.6618C118.948 78.6504 117.525 78.3548 117.044 77.5683C116.622 76.8834 116.796 76.0844 117.502 75.5011C118 75.0833 118.484 75.0308 119.701 75.2602C120.97 75.4999 123.424 75.5296 124.416 75.3173C125.599 75.0646 126.095 74.3132 125.904 73.0629C125.746 72.0116 124.976 71.5584 121.783 70.6361C118.068 69.5665 116.65 68.3783 116.363 66.0976C116.009 63.2907 117.507 61.1699 120.369 60.4405C120.852 60.3239 121.34 60.2344 121.832 60.1722C123.778 59.9439 126.145 60.0992 127.291 60.5261C128.059 60.8114 128.36 61.2304 128.36 62.01C128.36 62.446 128.295 62.6207 128.016 62.9426C127.483 63.5476 127.09 63.6275 125.533 63.4619C124.768 63.381 123.998 63.3577 123.229 63.3923C121.032 63.5521 120.247 64.0464 120.247 65.2689C120.247 66.5382 120.712 66.8567 123.928 67.7973C126.492 68.5461 127.631 69.0894 128.544 70.0003C129.565 71.0174 129.788 71.6429 129.792 73.4852C129.79 74.8356 129.775 74.9509 129.454 75.597Z" fill="#44A8FF"/>
<path fill-rule="evenodd" clip-rule="evenodd" d="M194.979 67.4537C193.918 65.3693 190.92 64.4641 186.888 65.0121C184.649 65.3157 184.003 65.6718 184.003 66.601C184.003 66.9708 184.075 67.1717 184.289 67.4C184.755 67.9034 185.224 68.0461 185.981 67.916C187.863 67.5918 190.217 67.6877 190.965 68.1066C191.6 68.4696 192.071 69.7891 191.698 70.1612C191.6 70.2583 190.87 70.2971 189.141 70.2971C187.811 70.2971 186.468 70.345 186.159 70.4032C184.522 70.7126 183.411 71.4876 182.783 72.7684C182.452 73.4384 182.413 73.6211 182.414 74.4977C182.414 75.6871 182.575 76.2818 183.065 76.9222C183.981 78.1207 185.101 78.6196 187.033 78.6938C188.643 78.7554 189.728 78.5545 190.864 77.9849C191.809 77.5112 191.999 77.4941 192.237 77.8594C192.787 78.6938 194.383 78.7029 195.15 77.8753C195.333 77.677 195.436 77.4175 195.438 77.1473L195.47 73.4487C195.51 69.0609 195.455 68.3885 194.979 67.4537ZM191.635 74.7374C191.2 75.5969 189.862 76.1574 188.234 76.1597C186.578 76.1597 185.838 75.6437 185.844 74.4817C185.844 73.6827 186.127 73.1827 186.726 72.9122C187.137 72.7261 187.488 72.6953 189.245 72.693C191.255 72.693 191.284 72.693 191.561 72.9704C191.901 73.3174 191.939 74.1393 191.635 74.7374Z" fill="#F39873"/>
<path fill-rule="evenodd" clip-rule="evenodd" d="M182.041 68.1267C181.479 68.2694 180.948 68.4201 180.481 68.5696C180.081 68.694 179.687 68.8388 179.302 69.0034C179.106 69.09 178.94 69.2313 178.823 69.4102C178.707 69.5891 178.645 69.7979 178.645 70.0113V73.2131C178.645 77.5347 178.654 77.472 177.912 78.1215C176.882 79.0232 175.239 78.481 174.869 77.117C174.789 76.8202 174.755 74.8431 174.781 71.3228C174.813 66.1234 174.82 65.9705 175.05 65.6577C175.224 65.4449 175.438 65.268 175.68 65.1372C176.534 64.7034 177.726 65.031 178.238 65.8403C178.582 66.3746 178.741 66.4031 179.521 66.0686C180.585 65.6063 181.661 65.2844 182.143 65.2844C182.53 65.2844 182.698 65.3529 182.971 65.6269C183.839 66.483 183.351 67.7945 182.041 68.1267Z" fill="#42C6B6"/>
<path fill-rule="evenodd" clip-rule="evenodd" d="M174.097 77.1513C174.097 77.8168 173.771 78.3225 173.221 78.5211C172.534 78.7631 169.85 78.7289 169.099 78.4686C168.348 78.2084 167.429 77.3968 167.074 76.6948C166.616 75.7907 166.552 75.1515 166.552 71.5581V68.4165C166.552 68.2628 166.428 68.1383 166.274 68.1383C164.392 68.1383 164.053 65.5711 165.88 65.1624C166.153 65.1008 166.414 64.9901 166.462 64.9159C166.51 64.8417 166.549 64.3178 166.55 63.755C166.55 62.2962 166.884 61.8145 168.121 61.4721C169.002 61.2289 169.609 61.4298 170.145 62.141C170.329 62.3875 170.39 62.6843 170.437 63.5815C170.513 65.0289 170.561 65.0814 171.877 65.1693C172.694 65.2229 172.89 65.2766 173.145 65.5528C173.4 65.8291 173.412 66.1738 173.412 66.5676C173.412 67.6577 172.965 68.1348 171.423 68.1348C170.88 68.1348 170.44 68.5751 170.44 69.1182V71.3835C170.44 74.9997 170.483 75.2645 171.135 75.5978C171.343 75.7051 171.908 75.8147 172.43 75.8512C173.282 75.9083 173.385 75.9425 173.727 76.2827C174.032 76.5897 174.097 76.7438 174.097 77.1513Z" fill="#C482E9"/>
<path fill-rule="evenodd" clip-rule="evenodd" d="M164.368 68.7574C164.025 66.9025 162.776 65.6754 160.663 65.1184C159.984 64.9391 157.308 64.8044 156.489 64.9083C155.832 64.9905 154.29 65.2827 153.824 65.4129C152.687 65.729 152.67 67.318 153.798 67.8453C154.159 68.0154 154.325 68.028 154.926 67.9264C156.873 67.5976 159.06 67.681 159.904 68.117C160.343 68.3453 160.661 68.8704 160.757 69.5324C160.871 70.2824 160.798 70.3018 158.053 70.3041C154.585 70.3041 153.578 70.5712 152.443 71.7743C151.584 72.6875 151.395 73.2057 151.401 74.628C151.406 76.0502 151.599 76.5536 152.456 77.3881C153.533 78.4382 154.678 78.7864 156.756 78.6973C158.279 78.6311 159.323 78.3709 160.052 77.8766C160.6 77.5033 160.875 77.5136 161.239 77.92C161.654 78.3834 162.094 78.5364 162.836 78.4747C163.577 78.4131 163.996 78.1506 164.288 77.5798C164.467 77.2374 164.488 76.7808 164.489 73.3107C164.493 70.9924 164.443 69.1615 164.368 68.7574ZM160.491 74.943C160.227 75.3756 159.088 75.9487 158.147 76.121C157.296 76.2774 156.142 76.1701 155.577 75.8825C154.449 75.3117 154.513 73.5379 155.684 72.95C156.154 72.7137 156.349 72.6932 158.162 72.6932C159.243 72.6932 160.213 72.7251 160.314 72.7639C160.856 72.9717 160.955 74.1828 160.491 74.943Z" fill="#F39873"/>
<path fill-rule="evenodd" clip-rule="evenodd" d="M131.812 59.944C130.854 60.525 130.911 62.0443 131.911 62.5797C132.4 62.8399 133.895 62.8662 134.478 62.623C135.543 62.1801 135.623 60.5501 134.614 59.936C134.08 59.6118 132.351 59.6164 131.812 59.944Z" fill="#C482E9"/>
<path fill-rule="evenodd" clip-rule="evenodd" d="M130.119 65.5521C129.793 65.8501 129.698 66.0338 129.65 66.4562C129.616 66.7306 129.621 67.0083 129.664 67.2815C129.747 67.6113 130.34 68.0234 130.733 68.0246C130.916 68.0439 131.088 68.1243 131.22 68.2529C131.439 68.472 131.449 68.6318 131.449 72.6966C131.449 77.3595 131.449 77.3767 132.17 78.0102C133.128 78.848 134.574 78.5033 135.122 77.3047C135.316 76.8847 135.332 76.4509 135.334 71.6362C135.334 65.8763 135.334 65.8364 134.629 65.4094C134.285 65.204 134.056 65.1812 132.391 65.1812H130.976C130.69 65.1811 130.414 65.2878 130.203 65.4802L130.119 65.5521Z" fill="#C482E9"/>
<path fill-rule="evenodd" clip-rule="evenodd" d="M144.542 64.9C144.416 64.9285 144.031 65.0141 143.685 65.0769C143.139 65.2172 142.607 65.4083 142.097 65.6476C141.569 65.8919 141.047 66.0917 140.937 66.0917C140.827 66.0917 140.65 65.9478 140.536 65.7755C140.185 65.2401 140.034 65.1853 138.881 65.1819C137.682 65.1819 137.41 65.2812 137.181 65.8337C137.083 66.07 137.055 67.6441 137.079 71.6826L137.109 76.6651C137.111 77.0175 137.228 77.3596 137.442 77.6399C138.152 78.5657 139.396 78.7312 140.221 78.0098C140.934 77.3877 140.943 77.3249 140.943 73.0467V69.6088C140.943 69.3322 141.041 69.0645 141.219 68.8529C141.83 68.1303 143.375 67.6144 144.619 67.7183C145.615 67.8016 146.07 68.0539 146.402 68.7056C146.653 69.1988 146.66 69.3026 146.665 72.9736C146.671 77.5635 146.72 77.7735 147.902 78.2997C148.842 78.7186 149.987 78.2506 150.393 77.2815C150.622 76.737 150.611 69.3049 150.379 68.2205C149.921 66.0517 148.492 64.989 145.915 64.8908C145.284 64.8669 144.666 64.8703 144.542 64.9Z" fill="#42C6B6"/>
</g>
<path d="M124.66 101.993C120.442 101.993 117.022 98.574 117.022 94.3559V85.758C117.022 84.7081 117.874 83.8571 118.923 83.8571C119.973 83.8571 120.824 84.7081 120.824 85.758V94.2006C120.824 96.4295 122.631 98.2363 124.86 98.2363H127.873C128.911 98.2363 129.752 99.0773 129.752 100.115C129.752 101.152 128.911 101.993 127.873 101.993H124.66Z" fill="#F39873"/>
<path d="M135.197 102.275C134.352 102.275 133.564 102.125 132.832 101.824C132.118 101.505 131.536 101.045 131.086 100.445C130.654 99.8249 130.438 99.0552 130.438 98.1352C130.438 96.821 130.898 95.7696 131.818 94.9811C132.757 94.1925 134.137 93.7983 135.958 93.7983H139.534C139.736 93.7983 139.9 93.6344 139.9 93.4322C139.9 92.6061 139.666 92.0241 139.196 91.6861C138.746 91.3482 137.826 91.1792 136.436 91.1792C135.53 91.1792 134.644 91.2625 133.778 91.4291C132.911 91.596 132.043 90.9715 132.043 90.0886C132.043 89.5572 132.367 89.0736 132.878 88.9294C133.306 88.8089 133.778 88.7046 134.296 88.6165C135.197 88.4475 136.174 88.363 137.225 88.363C139.234 88.363 140.783 88.776 141.872 89.6021C142.979 90.4094 143.533 91.7143 143.533 93.5166V100.213C143.533 101.196 142.736 101.993 141.753 101.993H140.629C140.404 101.993 140.212 101.83 140.176 101.608C140.117 101.251 139.679 101.091 139.372 101.283C138.993 101.521 138.568 101.72 138.098 101.881C137.328 102.144 136.361 102.275 135.197 102.275ZM136.239 99.7686C137.084 99.7686 137.816 99.6278 138.436 99.3462C138.854 99.1564 139.211 98.9324 139.51 98.6744C139.783 98.4381 139.9 98.0785 139.9 97.7174C139.9 96.8594 139.205 96.1639 138.347 96.1639H136.042C134.559 96.1639 133.817 96.7741 133.817 97.9944C133.817 99.1772 134.625 99.7686 136.239 99.7686Z" fill="#44A6FB"/>
<path d="M153.607 102.275C152.668 102.275 151.852 102.153 151.157 101.909C150.722 101.744 150.309 101.532 149.918 101.271C149.61 101.066 149.166 101.229 149.108 101.596C149.072 101.825 148.874 101.993 148.642 101.993H147.528C146.546 101.993 145.75 101.198 145.75 100.216V84.9131C145.75 83.8633 146.601 83.0122 147.651 83.0122C148.701 83.0122 149.552 83.8633 149.552 84.9131V87.3866C149.552 88.2546 150.54 88.827 151.382 88.6165C152.058 88.4475 152.762 88.363 153.495 88.363C155.41 88.363 156.921 88.9075 158.029 89.9964C159.155 91.0666 159.718 92.8032 159.718 95.2064C159.718 97.6095 159.164 99.3931 158.057 100.557C156.968 101.702 155.485 102.275 153.607 102.275ZM152.537 99.487C153.757 99.487 154.612 99.1303 155.1 98.4168C155.607 97.7034 155.86 96.6333 155.86 95.2064C155.86 93.7232 155.588 92.6812 155.043 92.0804C154.518 91.4608 153.673 91.151 152.509 91.151C151.927 91.151 151.373 91.2355 150.847 91.4045C149.943 91.706 149.552 92.6817 149.552 93.6353V96.6626C149.552 97.6983 149.916 98.7864 150.875 99.1772C151.401 99.3837 151.955 99.487 152.537 99.487Z" fill="#C482E9"/>
<path d="M166.082 102.275C165.087 102.275 164.139 102.2 163.237 102.05C162.792 101.985 162.39 101.911 162.032 101.827C161.443 101.69 161.069 101.143 161.069 100.538C161.069 99.5087 162.122 98.7827 163.133 98.9781C163.186 98.9884 163.24 98.9984 163.294 99.0082C164.12 99.1397 164.88 99.2054 165.575 99.2054C166.514 99.2054 167.171 99.1491 167.546 99.0364C167.941 98.9238 168.138 98.6703 168.138 98.276C168.138 97.8254 167.837 97.4969 167.236 97.2904C166.654 97.0838 165.781 96.7928 164.617 96.4173C163.397 96.0043 162.458 95.5068 161.801 94.9248C161.144 94.3427 160.816 93.4791 160.816 92.3338C160.816 91.0572 161.276 90.0809 162.195 89.405C163.134 88.7103 164.636 88.363 166.701 88.363C167.527 88.363 168.307 88.4287 169.039 88.5601C169.368 88.6107 169.674 88.667 169.957 88.7289C170.526 88.8532 170.898 89.3751 170.898 89.957V90.2764C170.898 91.1248 169.988 91.7168 169.152 91.5735C168.494 91.442 167.884 91.3763 167.321 91.3763C166.514 91.3763 165.866 91.4327 165.378 91.5453C164.908 91.658 164.674 91.902 164.674 92.2775C164.674 92.6906 164.927 92.9816 165.434 93.1505C165.96 93.3195 166.767 93.573 167.856 93.9109C168.926 94.2301 169.762 94.5774 170.362 94.9529C170.963 95.3284 171.386 95.779 171.63 96.3047C171.874 96.8116 171.996 97.4499 171.996 98.2197C171.996 100.923 170.025 102.275 166.082 102.275Z" fill="#42C6B6"/>
<g filter="url(#filter0_d_615_325)">
<circle cx="80" cy="78.9963" r="27" fill="white"/>
</g>
<path d="M74.2288 74.5615L82.2921 70.2464C84.1501 69.2522 84.8503 66.9399 83.856 65.0819C82.8617 63.224 80.5495 62.5238 78.6915 63.5181L70.6282 67.8332C68.519 68.9604 66.9298 70.8624 66.1955 73.1384L73.5029 75.3512C73.6486 75.0134 73.9045 74.7351 74.2288 74.5615Z" fill="#42C6B6"/>
<path d="M75.772 77.445C75.4727 77.6053 75.1308 77.6684 74.794 77.6254C74.4571 77.5825 74.1421 77.4357 73.8925 77.2054C73.643 76.9751 73.4713 76.6728 73.4015 76.3405C73.3317 76.0082 73.3672 75.6623 73.5029 75.3511L66.1956 73.1384C65.6228 74.8959 65.589 76.7846 66.0986 78.5615C66.6082 80.3383 67.6378 81.9221 69.055 83.1089C70.4722 84.2957 72.2121 85.0313 74.0509 85.221C75.8896 85.4107 77.743 85.0458 79.3727 84.1734L83.1277 82.1639L79.5271 75.4355L75.772 77.445Z" fill="#44A8FF"/>
<path d="M89.3243 91.2137C91.4912 90.0541 93.1086 88.0812 93.8209 85.7291C94.5331 83.377 94.2818 80.8382 93.1222 78.6714C91.9626 76.5045 89.9898 74.887 87.6376 74.1748C85.2855 73.4625 82.7467 73.7139 80.5799 74.8734L79.529 75.4358L83.1296 82.1642L84.1805 81.6018C84.5629 81.3972 85.0109 81.3528 85.426 81.4785C85.8411 81.6042 86.1892 81.8896 86.3939 82.272C86.5985 82.6544 86.6429 83.1024 86.5172 83.5175C86.3915 83.9326 86.106 84.2807 85.7237 84.4854L84.6728 85.0477L88.2734 91.7761L89.3243 91.2137Z" fill="#F39873"/>
<path d="M88.2735 91.7755L84.6729 85.0471L77.6604 88.7998C75.8024 89.7941 75.1023 92.1063 76.0966 93.9643C77.0909 95.8223 79.4031 96.5224 81.2611 95.5281L88.2735 91.7755Z" fill="#C482E9"/>
<defs>
<filter id="filter0_d_615_325" x="0.747417" y="0.944964" width="158.505" height="158.505" filterUnits="userSpaceOnUse" color-interpolation-filters="sRGB">
<feFlood flood-opacity="0" result="BackgroundImageFix"/>
<feColorMatrix in="SourceAlpha" type="matrix" values="0 0 0 0 0 0 0 0 0 0 0 0 0 0 0 0 0 0 127 0" result="hardAlpha"/>
<feOffset dy="1.20121"/>
<feGaussianBlur stdDeviation="26.1263"/>
<feComposite in2="hardAlpha" operator="out"/>
<feColorMatrix type="matrix" values="0 0 0 0 0 0 0 0 0 0 0 0 0 0 0 0 0 0 0.17 0"/>
<feBlend mode="normal" in2="BackgroundImageFix" result="effect1_dropShadow_615_325"/>
<feBlend mode="normal" in="SourceGraphic" in2="effect1_dropShadow_615_325" result="shape"/>
</filter>
<clipPath id="clip0_615_325">
<rect width="79.2707" height="19.017" fill="white" transform="translate(116.312 59.6951)"/>
</clipPath>
</defs>
</svg>
