<svg width="94" height="77" viewBox="0 0 94 77" fill="none" xmlns="http://www.w3.org/2000/svg">
<g clip-path="url(#clip0_531_536)">
<path fill-rule="evenodd" clip-rule="evenodd" d="M61.4623 36.2555C61.251 36.6856 60.7869 37.1418 60.3409 37.3579C59.7016 37.6677 59.3614 37.721 58.0506 37.7172C56.4515 37.7118 55.7729 37.5708 55.5436 37.1957C55.3426 36.8691 55.4256 36.488 55.7619 36.2098C55.9994 36.0106 56.2304 35.9855 56.8107 36.0949C57.4162 36.2093 58.5862 36.2234 59.0595 36.1222C59.6237 36.0017 59.8603 35.6433 59.7693 35.047C59.6939 34.5456 59.3265 34.3295 57.8038 33.8896C56.0322 33.3795 55.3557 32.8128 55.2187 31.7251C55.05 30.3865 55.7647 29.375 57.1296 29.0272C57.3596 28.9716 57.5925 28.9289 57.8273 28.8992C58.7554 28.7904 59.8839 28.8644 60.4304 29.068C60.7968 29.2041 60.9404 29.4039 60.9404 29.7757C60.9404 29.9837 60.9092 30.0669 60.7766 30.2205C60.5222 30.509 60.3349 30.5471 59.5924 30.4682C59.2274 30.4296 58.86 30.4185 58.4934 30.435C57.4457 30.5112 57.0711 30.7469 57.0711 31.3299C57.0711 31.9353 57.2928 32.0872 58.8269 32.5357C60.0494 32.8929 60.5926 33.152 61.0283 33.5864C61.5152 34.0715 61.6217 34.3698 61.6233 35.2484C61.6223 35.8924 61.6152 35.9474 61.4623 36.2555Z" fill="#44A8FF"/>
<path fill-rule="evenodd" clip-rule="evenodd" d="M92.7122 32.3718C92.2061 31.3778 90.7762 30.9461 88.8533 31.2074C87.7854 31.3522 87.4775 31.522 87.4775 31.9652C87.4775 32.1415 87.5119 32.2373 87.614 32.3462C87.8362 32.5863 88.0601 32.6543 88.4209 32.5923C89.3185 32.4377 90.441 32.4834 90.798 32.6832C91.1005 32.8563 91.3254 33.4856 91.1475 33.6631C91.1005 33.7094 90.7527 33.7279 89.9278 33.7279C89.2934 33.7279 88.653 33.7507 88.5056 33.7785C87.7248 33.926 87.1953 34.2957 86.8955 34.9065C86.7378 35.226 86.7192 35.3131 86.7197 35.7312C86.7197 36.2985 86.7967 36.5821 87.0304 36.8875C87.4672 37.4591 88.0011 37.697 88.9227 37.7324C89.6903 37.7618 90.2079 37.666 90.7495 37.3943C91.2004 37.1684 91.291 37.1602 91.4046 37.3344C91.6667 37.7324 92.4277 37.7367 92.7935 37.3421V37.3421C92.881 37.2475 92.9301 37.1237 92.9312 36.9949L92.9464 35.2309C92.9655 33.1383 92.9393 32.8177 92.7122 32.3718ZM91.1174 35.8455C90.91 36.2555 90.2717 36.5228 89.4954 36.5239C88.7054 36.5239 88.3527 36.2778 88.3554 35.7236C88.3554 35.3425 88.4903 35.1041 88.7764 34.9751C88.9724 34.8863 89.1394 34.8716 89.9775 34.8705C90.9362 34.8705 90.9498 34.8705 91.0819 35.0028C91.2441 35.1683 91.2621 35.5603 91.1174 35.8455Z" fill="#F39873"/>
<path fill-rule="evenodd" clip-rule="evenodd" d="M86.5418 32.6928C86.2738 32.7608 86.0204 32.8327 85.7977 32.904C85.6068 32.9633 85.4191 33.0324 85.2353 33.1109C85.1421 33.1522 85.0628 33.2196 85.0072 33.3049C84.9516 33.3902 84.922 33.4898 84.922 33.5916V35.1186C84.922 37.1796 84.9263 37.1497 84.5726 37.4594C84.0812 37.8895 83.2977 37.6309 83.1214 36.9804C83.0832 36.8388 83.0668 35.896 83.0794 34.2171C83.0946 31.7374 83.0979 31.6644 83.2077 31.5153C83.2905 31.4138 83.3925 31.3294 83.5079 31.267C83.9152 31.0602 84.4836 31.2164 84.7282 31.6024C84.8919 31.8572 84.9678 31.8708 85.3396 31.7113C85.8474 31.4908 86.3606 31.3373 86.5904 31.3373C86.775 31.3373 86.8552 31.3699 86.9851 31.5006C87.399 31.9089 87.1664 32.5344 86.5418 32.6928Z" fill="#42C6B6"/>
<path fill-rule="evenodd" clip-rule="evenodd" d="M82.7536 36.9969C82.7536 37.3142 82.598 37.5554 82.3353 37.6501C82.0078 37.7655 80.728 37.7492 80.3699 37.6251C80.0117 37.501 79.5733 37.1139 79.4041 36.7791C79.1857 36.348 79.1551 36.0431 79.1551 34.3294V32.831C79.1551 32.7578 79.0957 32.6984 79.0225 32.6984V32.6984C78.1249 32.6984 77.9633 31.4741 78.8347 31.2792C78.9646 31.2498 79.0891 31.197 79.112 31.1616C79.1349 31.1262 79.1535 30.8763 79.154 30.6079C79.154 29.9122 79.3135 29.6825 79.9031 29.5192C80.3235 29.4032 80.6128 29.499 80.8684 29.8382C80.9563 29.9558 80.9852 30.0973 81.0076 30.5252C81.0442 31.2155 81.0671 31.2405 81.6944 31.2824C82.0842 31.308 82.1776 31.3336 82.2993 31.4653C82.4211 31.5971 82.4265 31.7615 82.4265 31.9493C82.4265 32.4692 82.2136 32.6967 81.4782 32.6967V32.6967C81.2192 32.6967 81.0092 32.9067 81.0092 33.1657V34.2461C81.0092 35.9707 81.03 36.097 81.3406 36.256C81.44 36.3071 81.7091 36.3594 81.9581 36.3768C82.3648 36.404 82.414 36.4204 82.5767 36.5826C82.7224 36.729 82.7536 36.8025 82.7536 36.9969Z" fill="#C482E9"/>
<path fill-rule="evenodd" clip-rule="evenodd" d="M78.1134 32.9936C77.9496 32.109 77.354 31.5237 76.3461 31.2581C76.0224 31.1726 74.7459 31.1084 74.3556 31.1579C74.0422 31.1971 73.3068 31.3365 73.0846 31.3985C72.5424 31.5493 72.5342 32.3071 73.072 32.5586C73.2445 32.6397 73.3237 32.6457 73.6103 32.5973C74.5385 32.4405 75.5818 32.4802 75.9842 32.6882C76.1938 32.7971 76.345 33.0475 76.3909 33.3632C76.4455 33.7209 76.4105 33.7301 75.1013 33.7312C73.4476 33.7312 72.9672 33.8586 72.4261 34.4324C72.0161 34.8679 71.926 35.1151 71.9288 35.7934C71.9315 36.4717 72.0232 36.7118 72.4321 37.1097C72.9459 37.6105 73.4919 37.7766 74.4828 37.7341C75.2094 37.7025 75.7074 37.5784 76.0546 37.3427C76.3161 37.1647 76.4471 37.1696 76.6207 37.3634C76.8189 37.5844 77.0286 37.6574 77.3824 37.628C77.7361 37.5986 77.936 37.4734 78.0752 37.2012C78.1603 37.0378 78.1702 36.8201 78.1707 35.1651C78.1729 34.0595 78.1489 33.1863 78.1134 32.9936ZM76.2642 35.9436C76.1381 36.1499 75.5949 36.4232 75.1461 36.5054C74.7405 36.58 74.1901 36.5288 73.9204 36.3917C73.3827 36.1195 73.4132 35.2735 73.9717 34.9931C74.1956 34.8804 74.2889 34.8706 75.1532 34.8706C75.6691 34.8706 76.1316 34.8859 76.1796 34.9044C76.4384 35.0035 76.4853 35.5811 76.2642 35.9436Z" fill="#F39873"/>
<path fill-rule="evenodd" clip-rule="evenodd" d="M62.5869 28.7904C62.1299 29.0675 62.1572 29.792 62.6344 30.0473C62.8675 30.1715 63.5805 30.184 63.8584 30.068C64.3662 29.8568 64.4044 29.0794 63.9234 28.7865C63.6684 28.6319 62.844 28.6341 62.5869 28.7904Z" fill="#C482E9"/>
<path fill-rule="evenodd" clip-rule="evenodd" d="M61.7794 31.465C61.6238 31.6071 61.5784 31.6947 61.5555 31.8962C61.5395 32.027 61.5417 32.1595 61.5621 32.2898C61.6019 32.4471 61.8847 32.6436 62.072 32.6442C62.1594 32.6534 62.2412 32.6917 62.304 32.753C62.4088 32.8576 62.4132 32.9338 62.4132 34.8723C62.4132 37.0962 62.4132 37.1043 62.7572 37.4065C63.2141 37.806 63.9037 37.6416 64.1652 37.07C64.2575 36.8697 64.2651 36.6628 64.2662 34.3666C64.2662 31.6196 64.2662 31.6006 63.9299 31.397C63.7661 31.299 63.6569 31.2881 62.8625 31.2881H62.1877C62.0513 31.2881 61.9199 31.3389 61.8192 31.4307L61.7794 31.465Z" fill="#C482E9"/>
<path fill-rule="evenodd" clip-rule="evenodd" d="M68.6577 31.154C68.5977 31.1676 68.4137 31.2084 68.2488 31.2384C67.9884 31.3053 67.7349 31.3964 67.4916 31.5106C67.2399 31.6271 66.9909 31.7223 66.9385 31.7223C66.8861 31.7223 66.8015 31.6537 66.7469 31.5715C66.5798 31.3162 66.5077 31.2901 65.958 31.2885C65.3858 31.2885 65.2564 31.3358 65.1472 31.5993C65.1003 31.712 65.0872 32.4627 65.0986 34.3887L65.1128 36.765C65.1138 36.933 65.1696 37.0962 65.2717 37.2299C65.6102 37.6714 66.2036 37.7503 66.5967 37.4063C66.9369 37.1096 66.9412 37.0796 66.9412 35.0393V33.3997C66.9412 33.2678 66.9878 33.1401 67.0728 33.0392V33.0392C67.3644 32.6946 68.1009 32.4485 68.6943 32.4981C69.1693 32.5378 69.3866 32.6581 69.5449 32.969C69.6645 33.2042 69.6678 33.2537 69.6699 35.0044C69.6732 37.1934 69.6961 37.2936 70.2601 37.5446C70.7084 37.7443 71.2543 37.5211 71.4481 37.059C71.5573 36.7993 71.5519 33.2548 71.4416 32.7376C71.2232 31.7033 70.5413 31.1965 69.3123 31.1496C69.0115 31.1382 68.7167 31.1398 68.6577 31.154Z" fill="#42C6B6"/>
</g>
<path d="M59.1757 48.8444C57.164 48.8444 55.5332 47.2137 55.5332 45.202V41.1015C55.5332 40.6008 55.9391 40.1949 56.4398 40.1949V40.1949C56.9405 40.1949 57.3464 40.6008 57.3464 41.1015V45.1279C57.3464 46.1909 58.2081 47.0526 59.2711 47.0526H60.7081C61.2029 47.0526 61.604 47.4537 61.604 47.9485V47.9485C61.604 48.4433 61.2029 48.8444 60.7081 48.8444H59.1757Z" fill="#F39873"/>
<path d="M64.2011 48.9788C63.7982 48.9788 63.4221 48.9071 63.0729 48.7639C62.7326 48.6116 62.4551 48.3923 62.2402 48.1057C62.0342 47.8103 61.9313 47.4431 61.9313 47.0044C61.9313 46.3776 62.1506 45.8762 62.5894 45.5001C63.0371 45.1241 63.6952 44.936 64.5637 44.936H66.2695C66.3659 44.936 66.4441 44.8579 66.4441 44.7614V44.7614C66.4441 44.3675 66.3321 44.0899 66.1083 43.9287C65.8934 43.7675 65.4546 43.687 64.792 43.687C64.3599 43.687 63.9373 43.7267 63.5242 43.8062C63.1108 43.8857 62.6968 43.5879 62.6968 43.1668V43.1668C62.6968 42.9134 62.8512 42.6828 63.0951 42.614C63.2989 42.5565 63.5243 42.5068 63.7713 42.4647C64.2011 42.3842 64.6667 42.3439 65.1681 42.3439C66.1262 42.3439 66.8649 42.5409 67.3842 42.9348C67.9125 43.3199 68.1766 43.9422 68.1766 44.8017V47.9952C68.1766 48.4642 67.7964 48.8444 67.3274 48.8444H66.7913C66.684 48.8444 66.5926 48.7667 66.5753 48.6608V48.6608C66.5476 48.4902 66.3386 48.414 66.1922 48.5058C66.0113 48.6192 65.8088 48.7141 65.5845 48.7907C65.2174 48.9161 64.7562 48.9788 64.2011 48.9788ZM64.698 47.7834C65.101 47.7834 65.4502 47.7162 65.7456 47.5819C65.9448 47.4914 66.1155 47.3846 66.2577 47.2615C66.3879 47.1488 66.4441 46.9773 66.4441 46.8051V46.8051C66.4441 46.3959 66.1124 46.0642 65.7032 46.0642H64.604C63.8967 46.0642 63.543 46.3552 63.543 46.9373C63.543 47.5013 63.928 47.7834 64.698 47.7834Z" fill="#44A6FB"/>
<path d="M72.981 48.9788C72.5333 48.9788 72.1438 48.9206 71.8125 48.8041C71.6051 48.7256 71.4081 48.6243 71.2217 48.5001C71.0745 48.4021 70.8632 48.4801 70.8354 48.6547V48.6547C70.818 48.764 70.7238 48.8444 70.6131 48.8444H70.0816C69.6134 48.8444 69.2338 48.4649 69.2338 47.9966V40.6986C69.2338 40.1979 69.6397 39.792 70.1404 39.792V39.792C70.6411 39.792 71.047 40.1979 71.047 40.6986V41.8782C71.047 42.2922 71.5184 42.5652 71.92 42.4647V42.4647C72.2423 42.3842 72.5781 42.3439 72.9273 42.3439C73.8406 42.3439 74.5614 42.6035 75.0897 43.1229C75.6269 43.6332 75.8956 44.4615 75.8956 45.6076C75.8956 46.7537 75.6314 47.6043 75.1031 48.1595C74.5838 48.7057 73.8764 48.9788 72.981 48.9788ZM72.4707 47.6491C73.0527 47.6491 73.4601 47.479 73.6929 47.1387C73.9346 46.7985 74.0555 46.2881 74.0555 45.6076C74.0555 44.9002 73.9257 44.4033 73.666 44.1168C73.4153 43.8213 73.0124 43.6735 72.4572 43.6735C72.1797 43.6735 71.9155 43.7138 71.6648 43.7944V43.7944C71.2334 43.9382 71.047 44.4035 71.047 44.8583V46.3021C71.047 46.796 71.2208 47.315 71.6782 47.5013V47.5013C71.9289 47.5998 72.1931 47.6491 72.4707 47.6491Z" fill="#C482E9"/>
<path d="M78.9304 48.9788C78.4559 48.9788 78.0037 48.9429 77.5739 48.8713C77.3614 48.8403 77.1697 48.8049 76.9988 48.7652C76.7179 48.6999 76.5397 48.4388 76.5397 48.1505V48.1505C76.5397 47.6594 77.0419 47.3132 77.524 47.4064C77.5494 47.4113 77.575 47.4161 77.6008 47.4208C77.9947 47.4834 78.3574 47.5148 78.6887 47.5148C79.1364 47.5148 79.4497 47.4879 79.6288 47.4342C79.8169 47.3805 79.9109 47.2596 79.9109 47.0716C79.9109 46.8567 79.7676 46.7 79.4811 46.6015C79.2035 46.503 78.7872 46.3642 78.232 46.1851C77.65 45.9881 77.2023 45.7509 76.8889 45.4733C76.5755 45.1957 76.4188 44.7838 76.4188 44.2376C76.4188 43.6288 76.6382 43.1632 77.0769 42.8408C77.5246 42.5095 78.241 42.3439 79.2259 42.3439C79.6199 42.3439 79.9915 42.3752 80.3407 42.4379C80.4975 42.462 80.6435 42.4889 80.7786 42.5184C81.0498 42.5777 81.2271 42.8266 81.2271 43.1041V43.2564C81.2271 43.661 80.7932 43.9434 80.3944 43.875V43.875C80.081 43.8123 79.79 43.781 79.5214 43.781C79.1364 43.781 78.8274 43.8078 78.5946 43.8616C78.3708 43.9153 78.2589 44.0317 78.2589 44.2108C78.2589 44.4078 78.3797 44.5465 78.6215 44.6271C78.8722 44.7077 79.2572 44.8286 79.7766 44.9898C80.2869 45.142 80.6854 45.3076 80.9719 45.4867C81.2584 45.6658 81.4599 45.8807 81.5763 46.1314C81.6927 46.3732 81.7509 46.6776 81.7509 47.0447C81.7509 48.3341 80.8107 48.9788 78.9304 48.9788Z" fill="#42C6B6"/>
<g filter="url(#filter0_d_531_536)">
<circle cx="37.8767" cy="37.8767" r="12.8767" fill="white"/>
</g>
<path d="M35.1247 35.7616L38.9702 33.7037C39.8563 33.2295 40.1902 32.1268 39.716 31.2407V31.2407C39.2418 30.3546 38.1391 30.0206 37.253 30.4948L33.4075 32.5528C32.4015 33.0903 31.6436 33.9975 31.2935 35.0829L34.7785 36.1382C34.848 35.9772 34.97 35.8444 35.1247 35.7616Z" fill="#42C6B6"/>
<path d="M35.8606 37.1369C35.7179 37.2133 35.5548 37.2434 35.3942 37.2229C35.2335 37.2024 35.0833 37.1324 34.9643 37.0226C34.8452 36.9128 34.7634 36.7686 34.7301 36.6101C34.6968 36.4516 34.7137 36.2867 34.7785 36.1383L31.2935 35.083C31.0203 35.9212 31.0042 36.8219 31.2472 37.6693C31.4903 38.5168 31.9813 39.2721 32.6572 39.8381C33.3331 40.4041 34.1629 40.7549 35.0398 40.8454C35.9167 40.9358 36.8006 40.7618 37.5779 40.3457L39.3687 39.3874L37.6515 36.1785L35.8606 37.1369Z" fill="#44A8FF"/>
<path d="M42.3237 43.7033C43.3571 43.1503 44.1285 42.2094 44.4682 41.0876C44.8079 39.9658 44.688 38.7551 44.135 37.7217C43.582 36.6883 42.6411 35.9169 41.5193 35.5772C40.3975 35.2375 39.1867 35.3574 38.1533 35.9104L37.6521 36.1786L39.3694 39.3874L39.8705 39.1192C40.0529 39.0216 40.2666 39.0005 40.4645 39.0604C40.6625 39.1204 40.8285 39.2565 40.9261 39.4389C41.0237 39.6212 41.0449 39.8349 40.9849 40.0329C40.925 40.2308 40.7889 40.3969 40.6065 40.4945L40.1053 40.7627L41.8225 43.9715L42.3237 43.7033Z" fill="#F39873"/>
<path d="M41.8227 43.9713L40.1055 40.7625L36.7611 42.5522C35.875 43.0264 35.5411 44.1291 36.0153 45.0152C36.4895 45.9013 37.5922 46.2352 38.4783 45.761L41.8227 43.9713Z" fill="#C482E9"/>
<defs>
<filter id="filter0_d_531_536" x="0.0798988" y="0.652775" width="75.5941" height="75.5936" filterUnits="userSpaceOnUse" color-interpolation-filters="sRGB">
<feFlood flood-opacity="0" result="BackgroundImageFix"/>
<feColorMatrix in="SourceAlpha" type="matrix" values="0 0 0 0 0 0 0 0 0 0 0 0 0 0 0 0 0 0 127 0" result="hardAlpha"/>
<feOffset dy="0.572876"/>
<feGaussianBlur stdDeviation="12.4601"/>
<feComposite in2="hardAlpha" operator="out"/>
<feColorMatrix type="matrix" values="0 0 0 0 0 0 0 0 0 0 0 0 0 0 0 0 0 0 0.17 0"/>
<feBlend mode="normal" in2="BackgroundImageFix" result="effect1_dropShadow_531_536"/>
<feBlend mode="normal" in="SourceGraphic" in2="effect1_dropShadow_531_536" result="shape"/>
</filter>
<clipPath id="clip0_531_536">
<rect width="37.8055" height="9.06949" fill="white" transform="translate(55.1943 28.6716)"/>
</clipPath>
</defs>
</svg>
