<svg width="42" height="42" viewBox="0 0 42 42" fill="none" xmlns="http://www.w3.org/2000/svg">
<path d="M28.3325 3.5H13.6675C7.2975 3.5 3.5 7.2975 3.5 13.6675V28.3325C3.5 34.7025 7.2975 38.5 13.6675 38.5H28.3325C34.7025 38.5 38.5 34.7025 38.5 28.3325V13.6675C38.5 7.2975 34.7025 3.5 28.3325 3.5ZM17.4475 26.075L13.51 30.0125C13.2475 30.275 12.915 30.3975 12.5825 30.3975C12.25 30.3975 11.9 30.275 11.655 30.0125L10.3425 28.7C9.8175 28.1925 9.8175 27.3525 10.3425 26.845C10.85 26.3375 11.6725 26.3375 12.1975 26.845L12.5825 27.23L15.5925 24.22C16.1 23.7125 16.9225 23.7125 17.4475 24.22C17.955 24.7275 17.955 25.5675 17.4475 26.075ZM17.4475 13.825L13.51 17.7625C13.2475 18.025 12.915 18.1475 12.5825 18.1475C12.25 18.1475 11.9 18.025 11.655 17.7625L10.3425 16.45C9.8175 15.9425 9.8175 15.1025 10.3425 14.595C10.85 14.0875 11.6725 14.0875 12.1975 14.595L12.5825 14.98L15.5925 11.97C16.1 11.4625 16.9225 11.4625 17.4475 11.97C17.955 12.4775 17.955 13.3175 17.4475 13.825ZM30.73 29.085H21.5425C20.825 29.085 20.23 28.49 20.23 27.7725C20.23 27.055 20.825 26.46 21.5425 26.46H30.73C31.465 26.46 32.0425 27.055 32.0425 27.7725C32.0425 28.49 31.465 29.085 30.73 29.085ZM30.73 16.835H21.5425C20.825 16.835 20.23 16.24 20.23 15.5225C20.23 14.805 20.825 14.21 21.5425 14.21H30.73C31.465 14.21 32.0425 14.805 32.0425 15.5225C32.0425 16.24 31.465 16.835 30.73 16.835Z" fill="#151F28"/>
</svg>
