<svg width="25" height="24" viewBox="0 0 25 24" fill="none" xmlns="http://www.w3.org/2000/svg">
<path d="M20.1973 12.2V13.9C20.1973 17.05 18.3973 18.4 15.6973 18.4H6.69727C3.99727 18.4 2.19727 17.05 2.19727 13.9V8.5C2.19727 5.35 3.99727 4 6.69727 4H9.39727C9.26727 4.38 9.19727 4.8 9.19727 5.25V9.15002C9.19727 10.12 9.51727 10.94 10.0873 11.51C10.6573 12.08 11.4773 12.4 12.4473 12.4V13.79C12.4473 14.3 13.0273 14.61 13.4573 14.33L16.3473 12.4H18.9473C19.3973 12.4 19.8173 12.33 20.1973 12.2Z" stroke="#151F28" stroke-width="1.5" stroke-miterlimit="10" stroke-linecap="round" stroke-linejoin="round"/>
<path d="M22.1973 5.25V9.15002C22.1973 10.64 21.4373 11.76 20.1973 12.2C19.8173 12.33 19.3973 12.4 18.9473 12.4H16.3473L13.4573 14.33C13.0273 14.61 12.4473 14.3 12.4473 13.79V12.4C11.4773 12.4 10.6573 12.08 10.0873 11.51C9.51727 10.94 9.19727 10.12 9.19727 9.15002V5.25C9.19727 4.8 9.26727 4.38 9.39727 4C9.83727 2.76 10.9573 2 12.4473 2H18.9473C20.8973 2 22.1973 3.3 22.1973 5.25Z" stroke="#151F28" stroke-width="1.5" stroke-miterlimit="10" stroke-linecap="round" stroke-linejoin="round"/>
<path d="M7.59717 22H14.7972" stroke="#151F28" stroke-width="1.5" stroke-miterlimit="10" stroke-linecap="round" stroke-linejoin="round"/>
<path d="M11.1973 18.4V22" stroke="#151F28" stroke-width="1.5" stroke-miterlimit="10" stroke-linecap="round" stroke-linejoin="round"/>
<path d="M18.6928 7.25H18.7018" stroke="#151F28" stroke-width="1.5" stroke-linecap="round" stroke-linejoin="round"/>
<path d="M15.893 7.25H15.902" stroke="#151F28" stroke-width="1.5" stroke-linecap="round" stroke-linejoin="round"/>
<path d="M13.0927 7.25H13.1017" stroke="#151F28" stroke-width="1.5" stroke-linecap="round" stroke-linejoin="round"/>
</svg>
